<mxfile host="app.diagrams.net" modified="2020-06-24T19:37:58.815Z" agent="5.0 (Macintosh; Intel Mac OS X 10_15_5) AppleWebKit/537.36 (KHTML, like Gecko) Chrome/83.0.4103.106 Safari/537.36" etag="zQOreqAa2ygCHRS0qhMg" version="13.3.4" type="github">
  <diagram id="09MFM8PcGB7d5lSRM2Vn" name="Page-1">
    <mxGraphModel dx="1906" dy="1049" grid="1" gridSize="10" guides="1" tooltips="1" connect="1" arrows="1" fold="1" page="1" pageScale="1" pageWidth="1100" pageHeight="850" math="0" shadow="0">
      <root>
        <mxCell id="0" />
        <mxCell id="1" parent="0" />
        <mxCell id="kXowvovhPUxF3OV1TYhw-60" value="" style="rounded=0;whiteSpace=wrap;html=1;align=left;fillColor=#ffffff;dashed=1;labelBorderColor=none;strokeWidth=2;" parent="1" vertex="1">
          <mxGeometry x="172" y="180" width="910" height="530" as="geometry" />
        </mxCell>
        <mxCell id="kXowvovhPUxF3OV1TYhw-49" value="Future:&amp;nbsp;" style="rounded=0;whiteSpace=wrap;html=1;align=left;fillColor=#ffffff;dashed=1;labelBorderColor=none;strokeWidth=2;" parent="1" vertex="1">
          <mxGeometry x="390" y="770" width="320" height="245" as="geometry" />
        </mxCell>
        <mxCell id="kXowvovhPUxF3OV1TYhw-1" value="file" style="rounded=0;whiteSpace=wrap;html=1;fillColor=#ffffff;align=center;" parent="1" vertex="1">
          <mxGeometry x="773" y="440" width="20" height="30" as="geometry" />
        </mxCell>
        <mxCell id="kXowvovhPUxF3OV1TYhw-2" value="" style="rounded=0;whiteSpace=wrap;html=1;fillColor=#ffffff;align=left;dashed=1;strokeWidth=2;" parent="1" vertex="1">
          <mxGeometry x="843" y="240" width="210" height="270" as="geometry" />
        </mxCell>
        <mxCell id="kXowvovhPUxF3OV1TYhw-3" value="" style="rounded=0;whiteSpace=wrap;html=1;align=left;fillColor=#ffffff;dashed=1;labelBorderColor=none;strokeWidth=2;" parent="1" vertex="1">
          <mxGeometry x="193" y="240" width="520" height="370" as="geometry" />
        </mxCell>
        <mxCell id="kXowvovhPUxF3OV1TYhw-4" value="&lt;font style=&quot;font-size: 10px&quot;&gt;Companion Device WebSocket&lt;/font&gt;" style="rounded=0;whiteSpace=wrap;html=1;labelPosition=center;verticalLabelPosition=middle;align=left;verticalAlign=top;horizontal=1;spacingLeft=2;" parent="1" vertex="1">
          <mxGeometry x="510" y="937.5" width="80" height="60" as="geometry" />
        </mxCell>
        <mxCell id="kXowvovhPUxF3OV1TYhw-5" value="&lt;font style=&quot;font-size: 10px&quot;&gt;Captions WebSocket&lt;/font&gt;" style="rounded=0;whiteSpace=wrap;html=1;labelPosition=center;verticalLabelPosition=middle;align=left;verticalAlign=top;horizontal=1;spacingLeft=2;" parent="1" vertex="1">
          <mxGeometry x="510" y="887.5" width="80" height="40" as="geometry" />
        </mxCell>
        <mxCell id="kXowvovhPUxF3OV1TYhw-6" value="&lt;font style=&quot;font-size: 10px&quot;&gt;Audio WebSocket&lt;/font&gt;" style="rounded=0;whiteSpace=wrap;html=1;labelPosition=center;verticalLabelPosition=middle;align=left;verticalAlign=top;horizontal=1;spacingLeft=2;" parent="1" vertex="1">
          <mxGeometry x="510" y="837.5" width="80" height="40" as="geometry" />
        </mxCell>
        <mxCell id="kXowvovhPUxF3OV1TYhw-7" value="&lt;font style=&quot;font-size: 10px&quot;&gt;Video WebSocket&lt;/font&gt;" style="rounded=0;whiteSpace=wrap;html=1;labelPosition=center;verticalLabelPosition=middle;align=left;verticalAlign=top;horizontal=1;spacingLeft=2;" parent="1" vertex="1">
          <mxGeometry x="510" y="787.5" width="80" height="40" as="geometry" />
        </mxCell>
        <mxCell id="kXowvovhPUxF3OV1TYhw-8" value="libatsc3" style="rounded=0;whiteSpace=wrap;html=1;" parent="1" vertex="1">
          <mxGeometry x="533" y="470" width="160" height="40" as="geometry" />
        </mxCell>
        <mxCell id="kXowvovhPUxF3OV1TYhw-9" value="&lt;div style=&quot;&quot;&gt;&lt;span&gt;Application&lt;/span&gt;&lt;/div&gt;&lt;div style=&quot;&quot;&gt;&lt;span&gt;Context&lt;/span&gt;&lt;/div&gt;&lt;div style=&quot;&quot;&gt;&lt;span&gt;Cache&lt;/span&gt;&lt;/div&gt;" style="rounded=0;whiteSpace=wrap;html=1;align=left;spacingLeft=5;" parent="1" vertex="1">
          <mxGeometry x="533" y="510" width="160" height="80" as="geometry" />
        </mxCell>
        <mxCell id="kXowvovhPUxF3OV1TYhw-10" value="WebServer" style="rounded=0;whiteSpace=wrap;html=1;" parent="1" vertex="1">
          <mxGeometry x="613" y="410" width="80" height="60" as="geometry" />
        </mxCell>
        <mxCell id="kXowvovhPUxF3OV1TYhw-11" value="Cmd&lt;br&gt;WebSocket" style="rounded=0;whiteSpace=wrap;html=1;" parent="1" vertex="1">
          <mxGeometry x="533" y="410" width="80" height="60" as="geometry" />
        </mxCell>
        <mxCell id="kXowvovhPUxF3OV1TYhw-12" value="&lt;b&gt;ROUTE/DASH&lt;/b&gt;" style="rounded=0;whiteSpace=wrap;html=1;align=center;" parent="1" vertex="1">
          <mxGeometry x="233" y="270" width="120" height="40" as="geometry" />
        </mxCell>
        <mxCell id="kXowvovhPUxF3OV1TYhw-13" value="" style="endArrow=classic;html=1;entryX=0;entryY=0.25;entryDx=0;entryDy=0;" parent="1" source="kXowvovhPUxF3OV1TYhw-12" target="kXowvovhPUxF3OV1TYhw-30" edge="1">
          <mxGeometry width="50" height="50" relative="1" as="geometry">
            <mxPoint x="343" y="440" as="sourcePoint" />
            <mxPoint x="393" y="440" as="targetPoint" />
          </mxGeometry>
        </mxCell>
        <mxCell id="kXowvovhPUxF3OV1TYhw-14" value="Broadcast Video" style="text;html=1;strokeColor=none;fillColor=none;align=center;verticalAlign=middle;whiteSpace=wrap;rounded=0;dashed=1;" parent="1" vertex="1">
          <mxGeometry x="373" y="310" width="40" height="20" as="geometry" />
        </mxCell>
        <mxCell id="kXowvovhPUxF3OV1TYhw-15" value="Broadcast Application" style="rounded=0;whiteSpace=wrap;html=1;fillColor=#ffffff;align=center;" parent="1" vertex="1">
          <mxGeometry x="873" y="390" width="150" height="100" as="geometry" />
        </mxCell>
        <mxCell id="kXowvovhPUxF3OV1TYhw-16" value="Receiver" style="text;html=1;strokeColor=none;fillColor=none;align=center;verticalAlign=middle;whiteSpace=wrap;rounded=0;fontStyle=1" parent="1" vertex="1">
          <mxGeometry x="653" y="250" width="40" height="20" as="geometry" />
        </mxCell>
        <mxCell id="kXowvovhPUxF3OV1TYhw-17" value="&lt;div style=&quot;text-align: left&quot;&gt;&lt;span&gt;Application&lt;/span&gt;&lt;/div&gt;&lt;div style=&quot;text-align: left&quot;&gt;&lt;span&gt;Media&lt;/span&gt;&lt;/div&gt;&lt;div style=&quot;text-align: left&quot;&gt;&lt;span&gt;Player&lt;/span&gt;&lt;/div&gt;" style="rounded=0;whiteSpace=wrap;html=1;fillColor=#ffffff;align=center;" parent="1" vertex="1">
          <mxGeometry x="888" y="280" width="120" height="110" as="geometry" />
        </mxCell>
        <mxCell id="kXowvovhPUxF3OV1TYhw-18" value="" style="endArrow=classic;html=1;exitX=1;exitY=0;exitDx=0;exitDy=0;" parent="1" source="kXowvovhPUxF3OV1TYhw-1" edge="1">
          <mxGeometry width="50" height="50" relative="1" as="geometry">
            <mxPoint x="813" y="440" as="sourcePoint" />
            <mxPoint x="873" y="440" as="targetPoint" />
          </mxGeometry>
        </mxCell>
        <mxCell id="kXowvovhPUxF3OV1TYhw-19" value="" style="endArrow=none;html=1;startArrow=oval;startFill=1;" parent="1" edge="1">
          <mxGeometry width="50" height="50" relative="1" as="geometry">
            <mxPoint x="693" y="439" as="sourcePoint" />
            <mxPoint x="753" y="439" as="targetPoint" />
          </mxGeometry>
        </mxCell>
        <mxCell id="kXowvovhPUxF3OV1TYhw-20" value="file" style="rounded=0;whiteSpace=wrap;html=1;fillColor=#ffffff;align=center;" parent="1" vertex="1">
          <mxGeometry x="763" y="430" width="20" height="30" as="geometry" />
        </mxCell>
        <mxCell id="kXowvovhPUxF3OV1TYhw-21" value="file" style="rounded=0;whiteSpace=wrap;html=1;fillColor=#ffffff;align=center;" parent="1" vertex="1">
          <mxGeometry x="753" y="420" width="20" height="30" as="geometry" />
        </mxCell>
        <mxCell id="kXowvovhPUxF3OV1TYhw-22" value="" style="endArrow=classic;html=1;startArrow=blockThin;startFill=1;exitX=0.75;exitY=0;exitDx=0;exitDy=0;strokeWidth=2;" parent="1" source="kXowvovhPUxF3OV1TYhw-11" edge="1">
          <mxGeometry width="50" height="50" relative="1" as="geometry">
            <mxPoint x="773" y="620" as="sourcePoint" />
            <mxPoint x="875" y="398" as="targetPoint" />
            <Array as="points">
              <mxPoint x="593" y="398" />
            </Array>
          </mxGeometry>
        </mxCell>
        <mxCell id="kXowvovhPUxF3OV1TYhw-23" value="RPC / Events" style="edgeLabel;html=1;align=center;verticalAlign=middle;resizable=0;points=[];" parent="kXowvovhPUxF3OV1TYhw-22" vertex="1" connectable="0">
          <mxGeometry x="0.3796" y="1" relative="1" as="geometry">
            <mxPoint as="offset" />
          </mxGeometry>
        </mxCell>
        <mxCell id="kXowvovhPUxF3OV1TYhw-24" value="" style="endArrow=classic;html=1;startArrow=oval;startFill=1;" parent="1" edge="1">
          <mxGeometry width="50" height="50" relative="1" as="geometry">
            <mxPoint x="590" y="857.48" as="sourcePoint" />
            <mxPoint x="925" y="857.0799999999999" as="targetPoint" />
          </mxGeometry>
        </mxCell>
        <mxCell id="kXowvovhPUxF3OV1TYhw-25" value="Audio&amp;nbsp;stream" style="edgeLabel;html=1;align=center;verticalAlign=middle;resizable=0;points=[];" parent="kXowvovhPUxF3OV1TYhw-24" vertex="1" connectable="0">
          <mxGeometry x="0.3719" y="-1" relative="1" as="geometry">
            <mxPoint as="offset" />
          </mxGeometry>
        </mxCell>
        <mxCell id="kXowvovhPUxF3OV1TYhw-29" value="UserAgent" style="text;html=1;strokeColor=none;fillColor=none;align=center;verticalAlign=middle;whiteSpace=wrap;rounded=0;fontStyle=1" parent="1" vertex="1">
          <mxGeometry x="993" y="250" width="40" height="20" as="geometry" />
        </mxCell>
        <mxCell id="kXowvovhPUxF3OV1TYhw-30" value="RMP" style="rounded=0;whiteSpace=wrap;html=1;fillColor=#ffffff;align=center;" parent="1" vertex="1">
          <mxGeometry x="533" y="260" width="70" height="120" as="geometry" />
        </mxCell>
        <mxCell id="kXowvovhPUxF3OV1TYhw-31" value="&lt;b&gt;Internet&lt;/b&gt;" style="rounded=0;whiteSpace=wrap;html=1;align=center;" parent="1" vertex="1">
          <mxGeometry x="888" y="580" width="120" height="40" as="geometry" />
        </mxCell>
        <mxCell id="kXowvovhPUxF3OV1TYhw-32" value="Broadband" style="text;html=1;strokeColor=none;fillColor=none;align=center;verticalAlign=middle;whiteSpace=wrap;rounded=0;dashed=1;" parent="1" vertex="1">
          <mxGeometry x="968" y="532.5" width="40" height="20" as="geometry" />
        </mxCell>
        <mxCell id="kXowvovhPUxF3OV1TYhw-33" value="" style="endArrow=classic;html=1;" parent="1" source="kXowvovhPUxF3OV1TYhw-15" target="kXowvovhPUxF3OV1TYhw-31" edge="1">
          <mxGeometry width="50" height="50" relative="1" as="geometry">
            <mxPoint x="1023" y="440" as="sourcePoint" />
            <mxPoint x="1113" y="440" as="targetPoint" />
          </mxGeometry>
        </mxCell>
        <mxCell id="kXowvovhPUxF3OV1TYhw-35" value="" style="endArrow=classic;html=1;exitX=1;exitY=0.143;exitDx=0;exitDy=0;exitPerimeter=0;entryX=0;entryY=1;entryDx=0;entryDy=0;startArrow=oval;startFill=1;" parent="1" edge="1">
          <mxGeometry width="50" height="50" relative="1" as="geometry">
            <mxPoint x="590" y="806.79" as="sourcePoint" />
            <mxPoint x="895" y="808.21" as="targetPoint" />
          </mxGeometry>
        </mxCell>
        <mxCell id="kXowvovhPUxF3OV1TYhw-36" value="Video stream" style="edgeLabel;html=1;align=center;verticalAlign=middle;resizable=0;points=[];" parent="kXowvovhPUxF3OV1TYhw-35" vertex="1" connectable="0">
          <mxGeometry x="0.3167" relative="1" as="geometry">
            <mxPoint as="offset" />
          </mxGeometry>
        </mxCell>
        <mxCell id="kXowvovhPUxF3OV1TYhw-37" value="" style="group" parent="1" vertex="1" connectable="0">
          <mxGeometry x="623" y="532.5" width="52.5" height="37.5" as="geometry" />
        </mxCell>
        <mxCell id="kXowvovhPUxF3OV1TYhw-38" value="" style="triangle;whiteSpace=wrap;html=1;fillColor=#ffffff;align=left;rotation=-90;" parent="kXowvovhPUxF3OV1TYhw-37" vertex="1">
          <mxGeometry x="20" y="-2.5" width="15" height="20" as="geometry" />
        </mxCell>
        <mxCell id="kXowvovhPUxF3OV1TYhw-39" value="" style="triangle;whiteSpace=wrap;html=1;fillColor=#ffffff;align=left;rotation=-90;" parent="kXowvovhPUxF3OV1TYhw-37" vertex="1">
          <mxGeometry x="35" y="20" width="15" height="20" as="geometry" />
        </mxCell>
        <mxCell id="kXowvovhPUxF3OV1TYhw-40" value="" style="triangle;whiteSpace=wrap;html=1;fillColor=#ffffff;align=left;rotation=-90;" parent="kXowvovhPUxF3OV1TYhw-37" vertex="1">
          <mxGeometry x="2.5" y="20" width="15" height="20" as="geometry" />
        </mxCell>
        <mxCell id="kXowvovhPUxF3OV1TYhw-41" value="BA files" style="text;html=1;strokeColor=none;fillColor=none;align=center;verticalAlign=middle;whiteSpace=wrap;rounded=0;fontSize=10;" parent="1" vertex="1">
          <mxGeometry x="743" y="470" width="60" height="20" as="geometry" />
        </mxCell>
        <mxCell id="kXowvovhPUxF3OV1TYhw-42" value="&lt;b&gt;MMTP&lt;br&gt;&lt;/b&gt;" style="rounded=0;whiteSpace=wrap;html=1;align=center;" parent="1" vertex="1">
          <mxGeometry x="233" y="330" width="120" height="40" as="geometry" />
        </mxCell>
        <mxCell id="kXowvovhPUxF3OV1TYhw-43" value="&lt;b&gt;ROUTE/NRT&lt;/b&gt;" style="rounded=0;whiteSpace=wrap;html=1;align=center;" parent="1" vertex="1">
          <mxGeometry x="223" y="530" width="120" height="40" as="geometry" />
        </mxCell>
        <mxCell id="kXowvovhPUxF3OV1TYhw-44" value="" style="endArrow=classic;html=1;entryX=0;entryY=0.75;entryDx=0;entryDy=0;" parent="1" source="kXowvovhPUxF3OV1TYhw-42" target="kXowvovhPUxF3OV1TYhw-30" edge="1">
          <mxGeometry width="50" height="50" relative="1" as="geometry">
            <mxPoint x="343" y="490" as="sourcePoint" />
            <mxPoint x="393" y="490" as="targetPoint" />
          </mxGeometry>
        </mxCell>
        <mxCell id="kXowvovhPUxF3OV1TYhw-45" value="" style="endArrow=classic;html=1;exitX=1;exitY=0.5;exitDx=0;exitDy=0;" parent="1" source="kXowvovhPUxF3OV1TYhw-43" target="kXowvovhPUxF3OV1TYhw-9" edge="1">
          <mxGeometry width="50" height="50" relative="1" as="geometry">
            <mxPoint x="343" y="539.5" as="sourcePoint" />
            <mxPoint x="393" y="539.5" as="targetPoint" />
          </mxGeometry>
        </mxCell>
        <mxCell id="kXowvovhPUxF3OV1TYhw-50" value="" style="endArrow=classic;html=1;startArrow=oval;startFill=1;" parent="1" edge="1">
          <mxGeometry width="50" height="50" relative="1" as="geometry">
            <mxPoint x="590" y="907.48" as="sourcePoint" />
            <mxPoint x="955" y="907.0799999999999" as="targetPoint" />
          </mxGeometry>
        </mxCell>
        <mxCell id="kXowvovhPUxF3OV1TYhw-51" value="Caption&amp;nbsp;stream" style="edgeLabel;html=1;align=center;verticalAlign=middle;resizable=0;points=[];" parent="kXowvovhPUxF3OV1TYhw-50" vertex="1" connectable="0">
          <mxGeometry x="0.4071" y="1" relative="1" as="geometry">
            <mxPoint as="offset" />
          </mxGeometry>
        </mxCell>
        <mxCell id="kXowvovhPUxF3OV1TYhw-52" value="" style="endArrow=classic;html=1;startArrow=oval;startFill=1;" parent="1" edge="1">
          <mxGeometry width="50" height="50" relative="1" as="geometry">
            <mxPoint x="590" y="967.48" as="sourcePoint" />
            <mxPoint x="970" y="967" as="targetPoint" />
          </mxGeometry>
        </mxCell>
        <mxCell id="kXowvovhPUxF3OV1TYhw-53" value="Companion Device" style="edgeLabel;html=1;align=center;verticalAlign=middle;resizable=0;points=[];" parent="kXowvovhPUxF3OV1TYhw-52" vertex="1" connectable="0">
          <mxGeometry x="0.4071" y="1" relative="1" as="geometry">
            <mxPoint as="offset" />
          </mxGeometry>
        </mxCell>
        <mxCell id="kXowvovhPUxF3OV1TYhw-54" value="libatsc3 middleware" style="rounded=0;whiteSpace=wrap;html=1;fillColor=#ffffff;align=center;" parent="1" vertex="1">
          <mxGeometry x="433" y="275" width="70" height="315" as="geometry" />
        </mxCell>
        <mxCell id="kXowvovhPUxF3OV1TYhw-57" value="Data Payload" style="text;html=1;strokeColor=none;fillColor=none;align=center;verticalAlign=middle;whiteSpace=wrap;rounded=0;dashed=1;" parent="1" vertex="1">
          <mxGeometry x="373" y="520" width="40" height="20" as="geometry" />
        </mxCell>
        <mxCell id="kXowvovhPUxF3OV1TYhw-59" style="edgeStyle=orthogonalEdgeStyle;rounded=0;orthogonalLoop=1;jettySize=auto;html=1;exitX=1;exitY=0.5;exitDx=0;exitDy=0;" parent="1" source="kXowvovhPUxF3OV1TYhw-58" target="kXowvovhPUxF3OV1TYhw-3" edge="1">
          <mxGeometry relative="1" as="geometry" />
        </mxCell>
        <mxCell id="kXowvovhPUxF3OV1TYhw-58" value="&lt;b&gt;Multicast IP&lt;/b&gt;" style="rounded=0;whiteSpace=wrap;html=1;align=center;" parent="1" vertex="1">
          <mxGeometry x="10" y="405" width="120" height="40" as="geometry" />
        </mxCell>
        <mxCell id="kXowvovhPUxF3OV1TYhw-61" value="&lt;span style=&quot;font-size: 12px ; font-weight: 400 ; text-align: left&quot;&gt;ATSC 3.0 Android TV App&lt;/span&gt;" style="text;strokeColor=none;fillColor=none;html=1;fontSize=24;fontStyle=1;verticalAlign=middle;align=center;" parent="1" vertex="1">
          <mxGeometry x="551" y="660" width="100" height="40" as="geometry" />
        </mxCell>
        <mxCell id="kXowvovhPUxF3OV1TYhw-63" style="edgeStyle=orthogonalEdgeStyle;rounded=0;orthogonalLoop=1;jettySize=auto;html=1;exitX=0.5;exitY=1;exitDx=0;exitDy=0;entryX=0.5;entryY=0;entryDx=0;entryDy=0;" parent="1" source="kXowvovhPUxF3OV1TYhw-62" target="kXowvovhPUxF3OV1TYhw-58" edge="1">
          <mxGeometry relative="1" as="geometry" />
        </mxCell>
        <mxCell id="kXowvovhPUxF3OV1TYhw-62" value="&lt;b&gt;PHY I/F&lt;br&gt;(or pcap)&lt;br&gt;&lt;/b&gt;" style="rounded=0;whiteSpace=wrap;html=1;align=center;" parent="1" vertex="1">
          <mxGeometry x="10" y="300" width="120" height="40" as="geometry" />
        </mxCell>
      </root>
    </mxGraphModel>
  </diagram>
</mxfile>
